<?xml version="1.0" encoding="UTF-8"?>
<svg id="Layer_2" data-name="Layer 2" xmlns="http://www.w3.org/2000/svg" viewBox="0 0 97.64 97.79">
  <defs>
    <style>
      .cls-1 {
        fill: #8b5cf6;
      }
    </style>
  </defs>
  <g id="Layer_1-2" data-name="Layer 1">
    <path class="cls-1" d="M84.84,5.97c11.18,10.61,16.12,21.58,10.4,28.43-6.89,8.24-23.06,5.18-30.43-.96-5.43-4.53-10.3-16.74-8.84-23.72,2.88-13.82,21.41-10.83,28.87-3.75Z"/>
    <path class="cls-1" d="M43.06,1.77c6.62,4.14,5.61,16.37,1.9,22.31-6.48,10.36-27.92,19.25-37.08,8.53C-3.27,19.57,29.34-6.81,43.06,1.77Z"/>
    <path class="cls-1" d="M90.61,47.51c10.09,5.18,6.28,21.92.93,29.4-9.71,13.59-31.32,20.76-30.13-2.94.56-11.1,5.84-19.13,15.81-24.32,2.78-1.45,10.59-3.58,13.39-2.14Z"/>
    <path class="cls-1" d="M16.97,43.36c10,6.66,11.37,25.03,1.35,32.13-9.67,6.85-24.05-19.32-15.93-30.07,3.23-4.27,10.25-4.95,14.58-2.06Z"/>
    <path class="cls-1" d="M58.61,36.16c13.98,10.11-3.21,34.51-17.24,24.68-16.58-11.62,2.07-35.66,17.24-24.68Z"/>
    <path class="cls-1" d="M50.19,78.06c5.81,3.95,8.59,8.6,4.65,15.15-5.77,9.62-28.57,2.57-31.26-7.18-3.6-13.08,19.27-12.96,26.6-7.97h0Z"/>
  </g>
</svg>