<?xml version="1.0" encoding="UTF-8"?>
<svg id="Layer_2" data-name="Layer 2" xmlns="http://www.w3.org/2000/svg" viewBox="0 0 431.09 97.79">
  <defs>
    <style>
      .cls-1 {
        isolation: isolate;
      }

      .cls-2 {
        fill: #8b5cf6;
      }
    </style>
  </defs>
  <g id="Layer_1-2" data-name="Layer 1">
    <g>
      <path class="cls-2" d="M84.84,5.97c11.18,10.61,16.12,21.58,10.4,28.43-6.89,8.24-23.06,5.18-30.43-.96-5.43-4.53-10.3-16.74-8.84-23.72,2.88-13.82,21.41-10.83,28.87-3.75Z"/>
      <path class="cls-2" d="M43.06,1.77c6.62,4.14,5.61,16.37,1.9,22.31-6.48,10.36-27.92,19.25-37.08,8.53C-3.27,19.57,29.34-6.81,43.06,1.77Z"/>
      <path class="cls-2" d="M90.61,47.51c10.09,5.18,6.28,21.92.93,29.4-9.71,13.59-31.32,20.76-30.13-2.94.56-11.1,5.84-19.13,15.81-24.32,2.78-1.45,10.59-3.58,13.39-2.14Z"/>
      <path class="cls-2" d="M16.97,43.36c10,6.66,11.37,25.03,1.35,32.13-9.67,6.85-24.05-19.32-15.93-30.07,3.23-4.27,10.25-4.95,14.58-2.06Z"/>
      <path class="cls-2" d="M58.61,36.16c13.98,10.11-3.21,34.51-17.24,24.68-16.58-11.62,2.07-35.66,17.24-24.68Z"/>
      <path class="cls-2" d="M50.19,78.06c5.81,3.95,8.59,8.6,4.65,15.15-5.77,9.62-28.57,2.57-31.26-7.18-3.6-13.08,19.27-12.96,26.6-7.97h0Z"/>
      <g class="cls-1">
        <path d="M155.09,73.4v-23.28h-27.76v23.28h-9.36V20.03h9.36v21.84h27.76v-21.84h9.36v53.36h-9.36Z"/>
        <path d="M199.17,73.4v-4.16c-2.88,3.28-7.36,5.12-12.48,5.12-6.32,0-13.44-4.24-13.44-12.8s7.12-12.56,13.44-12.56c5.2,0,9.68,1.68,12.48,4.96v-5.76c0-4.48-3.68-7.2-9.04-7.2-4.32,0-8.08,1.6-11.44,4.88l-3.44-5.84c4.48-4.24,10.08-6.24,16.24-6.24,8.56,0,16.08,3.6,16.08,14v25.6h-8.4ZM199.17,58.75c-1.92-2.64-5.52-4-9.2-4-4.72,0-8.24,2.72-8.24,6.96s3.52,6.88,8.24,6.88c3.68,0,7.28-1.36,9.2-4v-5.84Z"/>
        <path d="M265.81,73.4v-25.2c0-4.16-1.84-6.96-6.32-6.96-3.76,0-7.28,2.64-8.96,5.12v27.04h-8.4v-25.2c0-4.16-1.84-6.96-6.4-6.96-3.68,0-7.12,2.64-8.88,5.2v26.96h-8.4v-38.64h8.4v5.28c1.6-2.4,6.72-6.24,12.56-6.24s9.28,2.88,10.56,7.12c2.24-3.52,7.36-7.12,13.12-7.12,7.12,0,11.12,3.84,11.12,11.68v27.92h-8.4Z"/>
        <path d="M282.69,54.04c0-11.04,7.6-20.24,19.84-20.24s19.92,9.2,19.92,20.24-7.52,20.32-19.92,20.32-19.84-9.2-19.84-20.32ZM313.73,54.04c0-6.8-4-12.8-11.2-12.8s-11.12,6-11.12,12.8,4,12.88,11.12,12.88,11.2-6,11.2-12.88Z"/>
        <path d="M357.01,73.4v-24.16c0-6-3.04-8-7.76-8-4.32,0-8,2.56-9.92,5.2v26.96h-8.4v-38.64h8.4v5.28c2.56-3.04,7.52-6.24,13.6-6.24,8.32,0,12.48,4.48,12.48,12.4v27.2h-8.4Z"/>
        <path d="M375.25,23.15c0-2.88,2.4-5.2,5.2-5.2s5.2,2.32,5.2,5.2-2.32,5.2-5.2,5.2-5.2-2.32-5.2-5.2ZM376.29,73.4v-38.64h8.4v38.64h-8.4Z"/>
        <path d="M431.09,88.12h-8.4v-20.08c-3.12,4.16-7.52,6.32-12.4,6.32-10,0-17.12-7.6-17.12-20.32s7.12-20.24,17.12-20.24c5.04,0,9.52,2.4,12.4,6.24v-5.28h8.4v53.36ZM422.69,46.43c-1.84-2.88-6-5.2-9.92-5.2-6.64,0-10.88,5.36-10.88,12.8s4.24,12.88,10.88,12.88c3.92,0,8.08-2.4,9.92-5.2v-15.28Z"/>
      </g>
    </g>
  </g>
</svg>